<mxfile host="app.diagrams.net" agent="Mozilla/5.0 (X11; Linux x86_64; rv:132.0) Gecko/20100101 Firefox/132.0" version="24.8.4">
  <diagram name="Page-1" id="9YuzkUGhZ70LMZZiXEKa">
    <mxGraphModel dx="1221" dy="639" grid="1" gridSize="10" guides="1" tooltips="1" connect="1" arrows="1" fold="1" page="1" pageScale="1" pageWidth="850" pageHeight="1100" math="0" shadow="0">
      <root>
        <mxCell id="0" />
        <mxCell id="1" parent="0" />
        <mxCell id="fcer_DWbzxVVgYh39GLK-1" value="Student" style="shape=umlActor;verticalLabelPosition=bottom;verticalAlign=top;html=1;outlineConnect=0;" vertex="1" parent="1">
          <mxGeometry x="360" y="130" width="30" height="60" as="geometry" />
        </mxCell>
        <mxCell id="fcer_DWbzxVVgYh39GLK-2" value="&lt;div&gt;Company&lt;/div&gt;" style="shape=umlActor;verticalLabelPosition=bottom;verticalAlign=top;html=1;outlineConnect=0;" vertex="1" parent="1">
          <mxGeometry x="360" y="550" width="30" height="60" as="geometry" />
        </mxCell>
        <mxCell id="fcer_DWbzxVVgYh39GLK-6" value="Login" style="ellipse;whiteSpace=wrap;html=1;flipV=0;flipH=1;" vertex="1" parent="1">
          <mxGeometry x="135" y="170" width="90" height="30" as="geometry" />
        </mxCell>
        <mxCell id="fcer_DWbzxVVgYh39GLK-11" value="User" style="shape=umlActor;verticalLabelPosition=bottom;verticalAlign=top;html=1;outlineConnect=0;" vertex="1" parent="1">
          <mxGeometry x="360" y="340" width="30" height="60" as="geometry" />
        </mxCell>
        <mxCell id="fcer_DWbzxVVgYh39GLK-12" value="Registration" style="ellipse;whiteSpace=wrap;html=1;flipV=0;flipH=1;" vertex="1" parent="1">
          <mxGeometry x="158" y="221" width="90" height="30" as="geometry" />
        </mxCell>
        <mxCell id="fcer_DWbzxVVgYh39GLK-13" value="See info" style="ellipse;whiteSpace=wrap;html=1;flipV=0;flipH=1;" vertex="1" parent="1">
          <mxGeometry x="150" y="286" width="90" height="30" as="geometry" />
        </mxCell>
        <mxCell id="fcer_DWbzxVVgYh39GLK-15" value="" style="endArrow=classic;html=1;rounded=0;" edge="1" parent="1">
          <mxGeometry width="50" height="50" relative="1" as="geometry">
            <mxPoint x="350" y="330" as="sourcePoint" />
            <mxPoint x="250" y="250" as="targetPoint" />
          </mxGeometry>
        </mxCell>
        <mxCell id="fcer_DWbzxVVgYh39GLK-16" value="" style="endArrow=classic;html=1;rounded=0;" edge="1" parent="1">
          <mxGeometry width="50" height="50" relative="1" as="geometry">
            <mxPoint x="340" y="350" as="sourcePoint" />
            <mxPoint x="250" y="310" as="targetPoint" />
          </mxGeometry>
        </mxCell>
        <mxCell id="fcer_DWbzxVVgYh39GLK-17" value="&lt;code style=&quot;font-size: 9px;&quot;&gt;«initiate»&lt;/code&gt;" style="text;html=1;align=center;verticalAlign=middle;whiteSpace=wrap;rounded=0;fontSize=9;flipV=0;flipH=1;" vertex="1" parent="1">
          <mxGeometry x="303" y="211" width="50" height="10" as="geometry" />
        </mxCell>
        <mxCell id="fcer_DWbzxVVgYh39GLK-22" value="&lt;code style=&quot;font-size: 9px;&quot;&gt;«initiate»&lt;/code&gt;" style="text;html=1;align=center;verticalAlign=middle;whiteSpace=wrap;rounded=0;fontSize=9;flipV=0;flipH=1;" vertex="1" parent="1">
          <mxGeometry x="303" y="272" width="50" height="10" as="geometry" />
        </mxCell>
        <mxCell id="fcer_DWbzxVVgYh39GLK-23" value="&lt;code style=&quot;font-size: 9px;&quot;&gt;«initiate»&lt;/code&gt;" style="text;html=1;align=center;verticalAlign=middle;whiteSpace=wrap;rounded=0;fontSize=9;flipV=0;flipH=1;" vertex="1" parent="1">
          <mxGeometry x="272" y="310" width="50" height="10" as="geometry" />
        </mxCell>
        <mxCell id="fcer_DWbzxVVgYh39GLK-25" value="" style="endArrow=block;endSize=16;endFill=0;html=1;rounded=0;" edge="1" parent="1">
          <mxGeometry width="160" relative="1" as="geometry">
            <mxPoint x="374.58" y="210" as="sourcePoint" />
            <mxPoint x="374.58" y="325" as="targetPoint" />
          </mxGeometry>
        </mxCell>
        <mxCell id="fcer_DWbzxVVgYh39GLK-27" value="" style="endArrow=block;endSize=16;endFill=0;html=1;rounded=0;" edge="1" parent="1">
          <mxGeometry width="160" relative="1" as="geometry">
            <mxPoint x="374.58" y="540" as="sourcePoint" />
            <mxPoint x="374.58" y="434" as="targetPoint" />
          </mxGeometry>
        </mxCell>
        <mxCell id="fcer_DWbzxVVgYh39GLK-28" value="Search for internship" style="ellipse;whiteSpace=wrap;html=1;" vertex="1" parent="1">
          <mxGeometry x="510" y="30" width="120" height="30" as="geometry" />
        </mxCell>
        <mxCell id="fcer_DWbzxVVgYh39GLK-31" value="" style="endArrow=classic;html=1;rounded=0;" edge="1" parent="1">
          <mxGeometry width="50" height="50" relative="1" as="geometry">
            <mxPoint x="400" y="140" as="sourcePoint" />
            <mxPoint x="510" y="100" as="targetPoint" />
          </mxGeometry>
        </mxCell>
        <mxCell id="fcer_DWbzxVVgYh39GLK-32" value="&lt;code style=&quot;font-size: 9px;&quot;&gt;«initiate»&lt;/code&gt;" style="text;html=1;align=center;verticalAlign=middle;whiteSpace=wrap;rounded=0;fontSize=9;" vertex="1" parent="1">
          <mxGeometry x="410" y="110" width="50" height="10" as="geometry" />
        </mxCell>
        <mxCell id="fcer_DWbzxVVgYh39GLK-33" value="Apply for internship" style="ellipse;whiteSpace=wrap;html=1;" vertex="1" parent="1">
          <mxGeometry x="520" y="80" width="120" height="30" as="geometry" />
        </mxCell>
        <mxCell id="fcer_DWbzxVVgYh39GLK-36" value="" style="endArrow=classic;html=1;rounded=0;" edge="1" parent="1">
          <mxGeometry width="50" height="50" relative="1" as="geometry">
            <mxPoint x="384" y="120" as="sourcePoint" />
            <mxPoint x="500" y="50" as="targetPoint" />
          </mxGeometry>
        </mxCell>
        <mxCell id="fcer_DWbzxVVgYh39GLK-37" value="&lt;code style=&quot;font-size: 9px;&quot;&gt;«initiate»&lt;/code&gt;" style="text;html=1;align=center;verticalAlign=middle;whiteSpace=wrap;rounded=0;fontSize=9;" vertex="1" parent="1">
          <mxGeometry x="390" y="70" width="50" height="10" as="geometry" />
        </mxCell>
        <mxCell id="fcer_DWbzxVVgYh39GLK-42" value="" style="endArrow=classic;html=1;rounded=0;" edge="1" parent="1">
          <mxGeometry width="50" height="50" relative="1" as="geometry">
            <mxPoint x="348" y="366" as="sourcePoint" />
            <mxPoint x="270" y="360" as="targetPoint" />
          </mxGeometry>
        </mxCell>
        <mxCell id="fcer_DWbzxVVgYh39GLK-43" value="&lt;code style=&quot;font-size: 9px;&quot;&gt;«initiate»&lt;/code&gt;" style="text;html=1;align=center;verticalAlign=middle;whiteSpace=wrap;rounded=0;fontSize=9;flipV=0;flipH=1;" vertex="1" parent="1">
          <mxGeometry x="280" y="366" width="50" height="10" as="geometry" />
        </mxCell>
        <mxCell id="fcer_DWbzxVVgYh39GLK-44" value="Update account" style="ellipse;whiteSpace=wrap;html=1;flipV=0;flipH=1;" vertex="1" parent="1">
          <mxGeometry x="158" y="340" width="100" height="26" as="geometry" />
        </mxCell>
        <mxCell id="fcer_DWbzxVVgYh39GLK-46" value="University" style="shape=umlActor;verticalLabelPosition=bottom;verticalAlign=top;html=1;outlineConnect=0;" vertex="1" parent="1">
          <mxGeometry x="70" y="539" width="30" height="60" as="geometry" />
        </mxCell>
        <mxCell id="fcer_DWbzxVVgYh39GLK-47" value="" style="endArrow=classic;html=1;rounded=0;" edge="1" parent="1">
          <mxGeometry width="50" height="50" relative="1" as="geometry">
            <mxPoint x="348" y="410" as="sourcePoint" />
            <mxPoint x="248" y="430" as="targetPoint" />
          </mxGeometry>
        </mxCell>
        <mxCell id="fcer_DWbzxVVgYh39GLK-48" value="&lt;code style=&quot;font-size: 9px;&quot;&gt;«initiate»&lt;/code&gt;" style="text;html=1;align=center;verticalAlign=middle;whiteSpace=wrap;rounded=0;fontSize=9;" vertex="1" parent="1">
          <mxGeometry x="278" y="400" width="50" height="10" as="geometry" />
        </mxCell>
        <mxCell id="fcer_DWbzxVVgYh39GLK-49" value="File a complaint" style="ellipse;whiteSpace=wrap;html=1;" vertex="1" parent="1">
          <mxGeometry x="120" y="420" width="120" height="30" as="geometry" />
        </mxCell>
        <mxCell id="fcer_DWbzxVVgYh39GLK-50" value="" style="endArrow=classic;html=1;rounded=0;" edge="1" parent="1">
          <mxGeometry width="50" height="50" relative="1" as="geometry">
            <mxPoint x="90" y="520" as="sourcePoint" />
            <mxPoint x="140" y="460" as="targetPoint" />
          </mxGeometry>
        </mxCell>
        <mxCell id="fcer_DWbzxVVgYh39GLK-51" value="&lt;code style=&quot;font-size: 9px;&quot;&gt;«participate»&lt;/code&gt;" style="text;html=1;align=center;verticalAlign=middle;whiteSpace=wrap;rounded=0;fontSize=9;" vertex="1" parent="1">
          <mxGeometry x="32" y="470" width="80" height="19" as="geometry" />
        </mxCell>
        <mxCell id="fcer_DWbzxVVgYh39GLK-52" value="Post internship" style="ellipse;whiteSpace=wrap;html=1;" vertex="1" parent="1">
          <mxGeometry x="490" y="410" width="120" height="30" as="geometry" />
        </mxCell>
        <mxCell id="fcer_DWbzxVVgYh39GLK-56" value="" style="endArrow=classic;html=1;rounded=0;" edge="1" parent="1">
          <mxGeometry width="50" height="50" relative="1" as="geometry">
            <mxPoint x="410" y="560" as="sourcePoint" />
            <mxPoint x="490" y="450" as="targetPoint" />
          </mxGeometry>
        </mxCell>
        <mxCell id="fcer_DWbzxVVgYh39GLK-57" value="&lt;code style=&quot;font-size: 9px;&quot;&gt;«initiate»&lt;/code&gt;" style="text;html=1;align=center;verticalAlign=middle;whiteSpace=wrap;rounded=0;fontSize=9;" vertex="1" parent="1">
          <mxGeometry x="425" y="545" width="50" height="10" as="geometry" />
        </mxCell>
        <mxCell id="fcer_DWbzxVVgYh39GLK-58" value="" style="curved=1;endArrow=classic;html=1;rounded=0;" edge="1" parent="1">
          <mxGeometry width="50" height="50" relative="1" as="geometry">
            <mxPoint x="410" y="620" as="sourcePoint" />
            <mxPoint x="630" y="120" as="targetPoint" />
            <Array as="points">
              <mxPoint x="650" y="530" />
              <mxPoint x="690" y="310" />
            </Array>
          </mxGeometry>
        </mxCell>
        <mxCell id="fcer_DWbzxVVgYh39GLK-59" value="&lt;code style=&quot;font-size: 9px;&quot;&gt;«participate»&lt;/code&gt;" style="text;html=1;align=center;verticalAlign=middle;whiteSpace=wrap;rounded=0;fontSize=9;" vertex="1" parent="1">
          <mxGeometry x="500" y="580" width="80" height="19" as="geometry" />
        </mxCell>
        <mxCell id="fcer_DWbzxVVgYh39GLK-60" value="" style="curved=1;endArrow=classic;html=1;rounded=0;" edge="1" parent="1">
          <mxGeometry width="50" height="50" relative="1" as="geometry">
            <mxPoint x="410" y="180" as="sourcePoint" />
            <mxPoint x="550" y="390" as="targetPoint" />
            <Array as="points">
              <mxPoint x="490" y="240" />
              <mxPoint x="530" y="300" />
            </Array>
          </mxGeometry>
        </mxCell>
        <mxCell id="fcer_DWbzxVVgYh39GLK-61" value="&lt;code style=&quot;font-size: 9px;&quot;&gt;«participate»&lt;/code&gt;" style="text;html=1;align=center;verticalAlign=middle;whiteSpace=wrap;rounded=0;fontSize=9;" vertex="1" parent="1">
          <mxGeometry x="475" y="215" width="80" height="19" as="geometry" />
        </mxCell>
        <mxCell id="fcer_DWbzxVVgYh39GLK-64" value="" style="curved=1;endArrow=classic;html=1;rounded=0;" edge="1" parent="1">
          <mxGeometry width="50" height="50" relative="1" as="geometry">
            <mxPoint x="370" y="330" as="sourcePoint" />
            <mxPoint x="230" y="190" as="targetPoint" />
            <Array as="points">
              <mxPoint x="360" y="250" />
              <mxPoint x="290" y="210" />
            </Array>
          </mxGeometry>
        </mxCell>
        <mxCell id="fcer_DWbzxVVgYh39GLK-65" value="" style="endArrow=block;endSize=16;endFill=0;html=1;rounded=0;" edge="1" parent="1">
          <mxGeometry width="160" relative="1" as="geometry">
            <mxPoint x="130" y="550" as="sourcePoint" />
            <mxPoint x="360" y="430" as="targetPoint" />
          </mxGeometry>
        </mxCell>
      </root>
    </mxGraphModel>
  </diagram>
</mxfile>
